<?xml version="1.0" encoding="iso-8859-1"?>
<!-- Uploaded to: SVG Repo, www.svgrepo.com, Generator: SVG Repo Mixer Tools -->
<svg version="1.1" id="Layer_1" xmlns="http://www.w3.org/2000/svg" xmlns:xlink="http://www.w3.org/1999/xlink" 
	 viewBox="0 0 512 512" xml:space="preserve">
<g>
	<circle style="fill:#E87B5A;" cx="256" cy="304" r="8"/>
	<path style="fill:#E87B5A;" d="M224,260c0-12-3.528-12-8-12c-5.048,0-13.704,6.016-20.48,12c6.776,5.984,15.432,12,20.48,12
		C220.472,272,224,272,224,260z"/>
	<path style="fill:#E87B5A;" d="M182.104,283.32c1.184,1.4,2.392,2.936,3.584,4.536c1.36-4.52,3.408-7.936,5.992-10.304
		c-0.944-0.712-1.832-1.424-2.712-2.136C187.272,278.536,184.952,281.232,182.104,283.32z"/>
	<path style="fill:#E87B5A;" d="M208,312c5.048,0,13.704-6.016,20.48-12c-6.776-5.984-15.432-12-20.48-12c-4.472,0-8,0-8,12
		S203.528,312,208,312z"/>
	<path style="fill:#E87B5A;" d="M246.584,185.416c0,2.136,0.832,4.144,2.344,5.656c3.024,3.032,8.296,3.024,11.312,0l0,0
		c1.512-1.512,2.344-3.52,2.344-5.656s-0.832-4.144-2.344-5.656c-1.512-1.512-3.52-2.344-5.656-2.344
		c-2.136,0-4.144,0.832-5.648,2.344C247.416,181.272,246.584,183.28,246.584,185.416z"/>
	<path style="fill:#E87B5A;" d="M256,360c12,0,12-3.528,12-8c0-5.048-6.016-13.704-12-20.48c-5.984,6.776-12,15.432-12,20.48
		C244,356.472,244,360,256,360z"/>
	<path style="fill:#E87B5A;" d="M256,232c5.536,0,9.976,0.784,13.6,2.072c-5.184-6.8-7.376-17.104-8.296-25.728
		c-2.168,0.632-4.4,1.064-6.72,1.064c-1.248,0-2.472-0.176-3.68-0.36c-0.664,7.72-2.336,17.248-6.336,24.456
		C247.8,232.616,251.456,232,256,232z"/>
	<path style="fill:#E87B5A;" d="M268,24c0-4.472,0-8-12-8s-12,3.528-12,8c0,5.048,6.016,13.704,12,20.48
		C261.984,37.704,268,29.048,268,24z"/>
	<path style="fill:#E87B5A;" d="M256,128c12,0,12-3.528,12-8c0-5.048-6.016-13.704-12-20.48c-5.984,6.776-12,15.432-12,20.48
		C244,124.472,244,128,256,128z"/>
	<path style="fill:#E87B5A;" d="M235.136,204.872c-9.016,0.56-19.4,2.424-22.976,6c-3.416,3.416-3.024,5.216-2.864,5.976
		c0.448,2.088,2.36,4.832,5.688,8.16c3.336,3.336,6.072,5.248,8.16,5.696c0.768,0.168,2.56,0.552,5.984-2.864
		C232.712,224.256,234.584,213.88,235.136,204.872z"/>
	<circle style="fill:#E87B5A;" cx="256" cy="72" r="8"/>
	<path style="fill:#E87B5A;" d="M268,256c0-4.472,0-8-12-8s-12,3.528-12,8c0,5.048,6.016,13.704,12,20.48
		C261.984,269.704,268,261.048,268,256z"/>
	<path style="fill:#E87B5A;" d="M164,80c0-4.472,0-8-12-8s-12,3.528-12,8c0,5.048,6.016,13.704,12,20.48
		C157.984,93.704,164,85.048,164,80z"/>
	<circle style="fill:#E87B5A;" cx="152" cy="128" r="8"/>
	<path style="fill:#E87B5A;" d="M145.736,199.536c-0.688-0.088-1.432-0.136-2.08-0.248c0.08,0.888,0.168,1.768,0.2,2.728
		C144.424,201.16,145,200.312,145.736,199.536z"/>
	<path style="fill:#E87B5A;" d="M152,184c12,0,12-3.528,12-8c0-5.048-6.016-13.704-12-20.48c-5.984,6.776-12,15.432-12,20.48
		C140,180.472,140,184,152,184z"/>
	<path style="fill:#E87B5A;" d="M168,320c12,0,12-3.528,12-8c0-5.048-6.016-13.704-12-20.48c-5.984,6.776-12,15.432-12,20.48
		C156,316.472,156,320,168,320z"/>
	<path style="fill:#E87B5A;" d="M168,208c-12,0-12,3.528-12,8c0,5.048,6.016,13.704,12,20.48c5.984-6.776,12-15.432,12-20.48
		C180,211.528,180,208,168,208z"/>
	<path style="fill:#E87B5A;" d="M237.952,163.136c-0.56-9.016-2.424-19.4-6-22.976c-2.512-2.512-4.144-2.968-5.144-2.968
		c-0.36,0-0.632,0.064-0.832,0.104c-1.464,0.312-3.272,1.392-5.36,3.136c-1.92,3.808-4.472,6.504-7.424,8.264
		c-0.512,0.888-0.912,1.72-1.064,2.456c-0.168,0.768-0.552,2.568,2.864,5.976C218.576,160.712,228.944,162.584,237.952,163.136z"/>
	<path style="fill:#E87B5A;" d="M202.68,135.864c1.12-1.368,2.392-2.76,3.824-4.192c0.304-0.304,0.584-0.52,0.888-0.808
		c0.392-1.68,0.608-3.904,0.608-6.864c0-12-3.528-12-8-12c-5.048,0-13.704,6.016-20.48,12c6.776,5.984,15.432,12,20.48,12
		C200.952,136,201.84,135.976,202.68,135.864z"/>
	<path style="fill:#E87B5A;" d="M241.896,284.68c-1.888-2.24-3.808-4.808-5.648-7.512c-1.136,2.072-2.424,3.888-3.928,5.272
		c2.328,1.752,4.4,3.48,6.28,5.136C239.6,286.512,240.704,285.552,241.896,284.68z"/>
	<path style="fill:#E87B5A;" d="M104,136c5.048,0,13.704-6.016,20.48-12c-6.776-5.984-15.432-12-20.48-12c-4.472,0-8,0-8,12
		S99.528,136,104,136z"/>
	<circle style="fill:#E87B5A;" cx="360" cy="128" r="8"/>
	<path style="fill:#E87B5A;" d="M16,204c0,12,3.528,12,8,12c5.048,0,13.704-6.016,20.48-12c-6.776-5.984-15.432-12-20.48-12
		C19.528,192,16,192,16,204z"/>
	<path style="fill:#E87B5A;" d="M416,124c0-12-3.528-12-8-12c-5.048,0-13.704,6.016-20.48,12c6.776,5.984,15.432,12,20.48,12
		C412.472,136,416,136,416,124z"/>
	<path style="fill:#E87B5A;" d="M372,80c0-4.472,0-8-12-8s-12,3.528-12,8c0,5.048,6.016,13.704,12,20.48
		C365.984,93.704,372,85.048,372,80z"/>
	<path style="fill:#E87B5A;" d="M200,68c0,12,3.528,12,8,12c5.048,0,13.704-6.016,20.48-12c-6.776-5.984-15.432-12-20.48-12
		C203.528,56,200,56,200,68z"/>
	<path style="fill:#E87B5A;" d="M312,68c0-12-3.528-12-8-12c-5.048,0-13.704,6.016-20.48,12c6.776,5.984,15.432,12,20.48,12
		C308.472,80,312,80,312,68z"/>
	<path style="fill:#E87B5A;" d="M283.52,300c6.776,5.984,15.432,12,20.48,12c4.472,0,8,0,8-12s-3.528-12-8-12
		C298.952,288,290.296,294.016,283.52,300z"/>
	<path style="fill:#E87B5A;" d="M323.024,275.424c-0.88,0.712-1.768,1.424-2.712,2.136c2.584,2.368,4.64,5.784,5.992,10.304
		c1.2-1.6,2.408-3.136,3.584-4.536C327.048,281.232,324.728,278.536,323.024,275.424z"/>
	<path style="fill:#E87B5A;" d="M296,248c-4.472,0-8,0-8,12s3.528,12,8,12c5.048,0,13.704-6.016,20.48-12
		C309.704,254.016,301.048,248,296,248z"/>
	<path style="fill:#E87B5A;" d="M288.848,227.872c2.088-0.448,4.832-2.36,8.16-5.696c3.336-3.336,5.248-6.072,5.696-8.16
		c0.168-0.768,0.552-2.568-2.864-5.976c-3.584-3.584-13.96-5.456-22.968-6c0.56,9.016,2.424,19.4,6,22.976
		C286.288,228.424,288.072,228.032,288.848,227.872z"/>
	<path style="fill:#E87B5A;" d="M312,136c5.048,0,13.704-6.016,20.48-12c-6.776-5.984-15.432-12-20.48-12c-4.472,0-8,0-8,12
		S307.528,136,312,136z"/>
	<path style="fill:#E87B5A;" d="M360,184c12,0,12-3.528,12-8c0-5.048-6.016-13.704-12-20.48c-5.984,6.776-12,15.432-12,20.48
		C348,180.472,348,184,360,184z"/>
	<path style="fill:#E87B5A;" d="M299.872,153.976c-0.448-2.088-2.36-4.832-5.696-8.16c-3.336-3.336-6.072-5.248-8.16-5.696
		c-0.2-0.04-0.472-0.104-0.832-0.104c-0.992,0-2.632,0.456-5.144,2.968c-3.584,3.584-5.456,13.96-6,22.968
		c9.016-0.56,19.4-2.424,22.976-6C300.424,156.544,300.04,154.744,299.872,153.976z"/>
	<path style="fill:#E87B5A;" d="M332,216c0,5.048,6.016,13.704,12,20.48c5.984-6.776,12-15.432,12-20.48c0-4.472,0-8-12-8
		S332,211.528,332,216z"/>
	<path style="fill:#E87B5A;" d="M279.688,282.44c-1.504-1.384-2.792-3.2-3.928-5.272c-1.848,2.704-3.768,5.272-5.648,7.512
		c1.184,0.872,2.296,1.832,3.304,2.896C275.288,285.92,277.36,284.192,279.688,282.44z"/>
	<path style="fill:#E87B5A;" d="M344,320c12,0,12-3.528,12-8c0-5.048-6.016-13.704-12-20.48c-5.984,6.776-12,15.432-12,20.48
		C332,316.472,332,320,344,320z"/>
	<path style="fill:#E87B5A;" d="M368.352,199.288c-0.648,0.112-1.392,0.16-2.08,0.248c0.728,0.776,1.312,1.624,1.88,2.48
		C368.184,201.056,368.264,200.176,368.352,199.288z"/>
	<circle style="fill:#E87B5A;" cx="344" cy="264" r="8"/>
	<circle style="fill:#E87B5A;" cx="168" cy="264" r="8"/>
	<path style="fill:#E87B5A;" d="M60,256c0,4.472,0,8,12,8s12-3.528,12-8c0-5.048-6.016-13.704-12-20.48
		C66.016,242.296,60,250.952,60,256z"/>
	<rect x="240" y="448" style="fill:#E87B5A;" width="32" height="16"/>
</g>
<path style="fill:#FFFFFF;" d="M415.136,268.944C412.144,284.352,401.344,288,392,288c-9.352,0-19.48-6.472-27.024-12.576
	c-1.704,3.112-4.024,5.808-6.872,7.896C364.56,290.976,372,301.976,372,312c0,10.952-4.856,24-28,24
	c-14.904,0-22.168-5.432-25.496-12.216C314.128,326.912,308.88,328,304,328c-9.352,0-19.48-6.472-27.024-12.576
	c-1.704,3.112-4.024,5.808-6.872,7.896C276.56,330.976,284,341.976,284,352c0,10.952-4.856,24-28,24s-28-13.048-28-24
	c0-10.024,7.44-21.024,13.896-28.68c-2.848-2.088-5.168-4.784-6.872-7.896C227.48,321.528,217.344,328,208,328
	c-4.88,0-10.136-1.088-14.504-4.216C190.168,330.568,182.904,336,168,336c-23.144,0-28-13.048-28-24
	c0-10.024,7.44-21.024,13.896-28.68c-2.848-2.088-5.168-4.784-6.872-7.896C139.48,281.528,129.344,288,120,288
	s-20.144-3.648-23.136-19.056c-1.856,3.232-4.808,6.016-9.096,8.008L235.424,432h41.144l147.656-155.04
	C419.944,274.968,416.992,272.176,415.136,268.944z"/>
<g>
	<path style="fill:#E87B5A;" d="M412.48,204c-6.776-5.984-15.432-12-20.48-12c-4.472,0-8,0-8,12s3.528,12,8,12
		C397.048,216,405.704,209.984,412.48,204z"/>
	<path style="fill:#E87B5A;" d="M400,260c0-12-3.528-12-8-12c-5.048,0-13.704,6.016-20.48,12c6.776,5.984,15.432,12,20.48,12
		C396.472,272,400,272,400,260z"/>
	<path style="fill:#E87B5A;" d="M72,152c-12,0-12,3.528-12,8c0,5.048,6.016,13.704,12,20.48c5.984-6.776,12-15.432,12-20.48
		C84,155.528,84,152,72,152z"/>
	<circle style="fill:#E87B5A;" cx="72" cy="208" r="8"/>
</g>
<polygon style="fill:#FFFFFF;" points="235.312,480 219.312,496 292.688,496 276.688,480 "/>
<g>
	<path style="fill:#E87B5A;" d="M112,260c0,12,3.528,12,8,12c5.048,0,13.704-6.016,20.48-12c-6.776-5.984-15.432-12-20.48-12
		C115.528,248,112,248,112,260z"/>
	<path style="fill:#E87B5A;" d="M440,152c-12,0-12,3.528-12,8c0,5.048,6.016,13.704,12,20.48c5.984-6.776,12-15.432,12-20.48
		C452,155.528,452,152,440,152z"/>
	<path style="fill:#E87B5A;" d="M428,256c0,4.472,0,8,12,8s12-3.528,12-8c0-5.048-6.016-13.704-12-20.48
		C434.016,242.296,428,250.952,428,256z"/>
	<circle style="fill:#E87B5A;" cx="440" cy="208" r="8"/>
	<path style="fill:#E87B5A;" d="M488,192c-5.048,0-13.704,6.016-20.48,12c6.776,5.984,15.432,12,20.48,12c4.472,0,8,0,8-12
		S492.472,192,488,192z"/>
	<path style="fill:#E87B5A;" d="M99.52,204c6.776,5.984,15.432,12,20.48,12c4.472,0,8,0,8-12s-3.528-12-8-12
		C114.952,192,106.296,198.016,99.52,204z"/>
</g>
<g>
	<path style="fill:#3C4A53;" d="M488,176c-10.936,0-22.944,8.816-30.592,15.576c-1.008-1.072-2.112-2.032-3.304-2.896
		C460.56,181.024,468,170.024,468,160c0-10.952-4.856-24-28-24c-3.856,0-7.048,0.472-9.952,1.128
		c1.2-3.552,1.952-7.808,1.952-13.128c0-23.144-13.048-28-24-28c-10.936,0-22.944,8.816-30.592,15.576
		c-1.008-1.072-2.112-2.032-3.304-2.904C380.56,101.024,388,90.024,388,80c0-10.952-4.856-24-28-24s-28,13.048-28,24
		c0,10.024,7.44,21.024,13.896,28.68c-1.192,0.872-2.296,1.832-3.304,2.904C334.944,104.816,322.936,96,312,96
		c-10.952,0-24,4.856-24,28c0,0.096,0.016,0.16,0.016,0.256c-1.296-0.192-2.728-0.248-4.272-0.136
		c0.176-1.384,0.256-2.768,0.256-4.12c0-10.024-7.44-21.024-13.896-28.68c2.848-2.088,5.168-4.784,6.872-7.896
		C284.52,89.528,294.648,96,304,96c10.952,0,24-4.856,24-28s-13.048-28-24-28c-10.936,0-22.944,8.816-30.592,15.576
		c-1.008-1.072-2.112-2.032-3.304-2.904C276.56,45.024,284,34.024,284,24c0-10.952-4.856-24-28-24s-28,13.048-28,24
		c0,10.024,7.44,21.024,13.896,28.68c-1.192,0.872-2.296,1.832-3.304,2.904C230.944,48.816,218.936,40,208,40
		c-10.952,0-24,4.856-24,28s13.048,28,24,28c9.344,0,19.48-6.472,27.024-12.576c1.704,3.112,4.024,5.808,6.872,7.896
		C235.44,98.976,228,109.976,228,120c0,0.424,0.064,0.856,0.08,1.28c-1.544-0.104-2.968-0.024-4.264,0.176
		C222.824,100.656,210.504,96,200,96c-10.936,0-22.944,8.816-30.592,15.576c-1.008-1.072-2.112-2.032-3.304-2.904
		C172.56,101.024,180,90.024,180,80c0-10.952-4.856-24-28-24s-28,13.048-28,24c0,10.024,7.44,21.024,13.896,28.68
		c-1.192,0.872-2.296,1.832-3.304,2.904C126.944,104.816,114.936,96,104,96c-10.952,0-24,4.856-24,28
		c0,5.32,0.752,9.576,1.952,13.128C79.048,136.472,75.856,136,72,136c-23.144,0-28,13.048-28,24c0,10.024,7.44,21.024,13.896,28.68
		c-1.184,0.872-2.296,1.832-3.304,2.896C46.944,184.816,34.936,176,24,176c-10.952,0-24,4.856-24,28s13.048,28,24,28
		c9.344,0,19.48-6.472,27.024-12.576c1.704,3.112,4.024,5.808,6.872,7.896C51.44,234.976,44,245.976,44,256
		c0,10.304,4.512,22.336,24.312,23.728l150.392,157.92C207.112,430.944,191.912,424,178.664,424c-23,0-34.664,10.768-34.664,32
		s11.664,32,34.664,32c12.92,0,27.688-6.608,39.168-13.152l-23.496,23.496c-2.288,2.288-2.976,5.728-1.736,8.72
		c1.248,2.984,4.168,4.936,7.4,4.936h112c3.232,0,6.152-1.952,7.392-4.936c1.24-2.992,0.552-6.432-1.736-8.72l-23.496-23.496
		C305.648,481.392,320.416,488,333.328,488C356.336,488,368,477.232,368,456s-11.664-32-34.672-32c-13.24,0-28.44,6.944-40.04,13.64
		L443.68,279.72C463.488,278.336,468,266.304,468,256c0-10.024-7.44-21.024-13.896-28.68c2.848-2.088,5.168-4.784,6.872-7.896
		C468.52,225.528,478.648,232,488,232c10.952,0,24-4.856,24-28S498.952,176,488,176z M304,56c4.472,0,8,0,8,12s-3.528,12-8,12
		c-5.048,0-13.704-6.016-20.48-12C290.296,62.016,298.952,56,304,56z M208,80c-4.472,0-8,0-8-12s3.528-12,8-12
		c5.048,0,13.704,6.016,20.48,12C221.704,73.984,213.048,80,208,80z M24,216c-4.472,0-8,0-8-12s3.528-12,8-12
		c5.048,0,13.704,6.016,20.48,12C37.704,209.984,29.048,216,24,216z M178.664,472C161.336,472,160,465.368,160,456
		s1.336-16,18.664-16c11.752,0,28.288,8.88,39.344,16C206.968,463.128,190.456,472,178.664,472z M333.328,440
		c17.328,0,18.672,6.632,18.672,16s-1.344,16-18.672,16c-11.752,0-28.288-8.88-39.344-16C305.032,448.872,321.544,440,333.328,440z
		 M408,112c4.472,0,8,0,8,12s-3.528,12-8,12c-5.048,0-13.704-6.016-20.48-12C394.296,118.016,402.952,112,408,112z M360,72
		c12,0,12,3.528,12,8c0,5.048-6.016,13.704-12,20.48c-5.984-6.776-12-15.432-12-20.48C348,75.528,348,72,360,72z M368,128
		c0,4.408-3.592,8-8,8s-8-3.592-8-8s3.592-8,8-8S368,123.592,368,128z M360,155.52c5.984,6.776,12,15.432,12,20.48c0,4.472,0,8-12,8
		s-12-3.528-12-8C348,170.952,354.016,162.296,360,155.52z M368.352,199.288c-0.08,0.888-0.168,1.768-0.2,2.728
		c-0.568-0.856-1.152-1.696-1.88-2.48C366.96,199.448,367.704,199.4,368.352,199.288z M356,216c0,5.048-6.016,13.704-12,20.48
		c-5.984-6.776-12-15.432-12-20.48c0-4.472,0-8,12-8S356,211.528,356,216z M344,291.52c5.984,6.776,12,15.432,12,20.48
		c0,4.472,0,8-12,8s-12-3.528-12-8C332,306.952,338.016,298.296,344,291.52z M336,264c0-4.408,3.592-8,8-8s8,3.592,8,8s-3.592,8-8,8
		S336,268.408,336,264z M345.896,147.32C339.44,154.976,332,165.976,332,176c0,5.632,1.344,11.784,5.736,16.464
		c-12.08,1.512-17.792,7.328-20.16,14.048c-1.104-3.104-3.048-6.416-6.424-9.784c-7.704-7.704-22.448-10.016-32.632-10.648
		c0.008-0.224,0.064-0.44,0.064-0.664c0-1.256-0.176-2.488-0.36-3.704c9.976-0.848,23.008-3.344,30.096-10.44
		c7.48-7.472,8.2-14.72,7.344-19.76c8.28-1.352,16.784-6.768,23.36-12.08C340.728,142.536,343.048,145.232,345.896,147.32z
		 M326.592,247.576c-5.104-4.512-12.088-9.832-19.496-12.96c0.416-0.392,0.808-0.704,1.224-1.12c4.064-4.064,6.8-7.832,8.472-11.576
		c2.072,8.256,7.896,16.584,13.096,22.752C328.704,245.552,327.6,246.512,326.592,247.576z M329.896,283.32
		c-1.184,1.4-2.392,2.936-3.584,4.536c-1.36-4.52-3.408-7.936-5.992-10.304c0.944-0.712,1.832-1.424,2.712-2.136
		C324.728,278.536,327.048,281.232,329.896,283.32z M296,272c-4.472,0-8,0-8-12s3.528-12,8-12c5.048,0,13.704,6.016,20.48,12
		C309.704,265.984,301.048,272,296,272z M312,300c0,12-3.528,12-8,12c-5.048,0-13.704-6.016-20.48-12
		c6.776-5.984,15.432-12,20.48-12C308.472,288,312,288,312,300z M282.872,225.008c-3.568-3.568-5.44-13.952-6-22.976
		c9.008,0.552,19.376,2.416,22.968,6c3.416,3.416,3.024,5.216,2.864,5.976c-0.448,2.088-2.36,4.832-5.696,8.16
		c-3.328,3.336-6.072,5.248-8.16,5.696C288.072,228.032,286.288,228.424,282.872,225.008z M312,112c5.048,0,13.704,6.016,20.48,12
		c-6.776,5.984-15.432,12-20.48,12c-4.472,0-8,0-8-12S307.528,112,312,112z M280.04,142.992c2.512-2.512,4.152-2.968,5.144-2.968
		c0.36,0,0.632,0.064,0.832,0.104c2.088,0.448,4.832,2.36,8.16,5.696c3.336,3.328,5.248,6.072,5.696,8.16
		c0.168,0.768,0.552,2.568-2.864,5.976c-3.568,3.568-13.952,5.44-22.976,6C274.592,156.944,276.456,146.576,280.04,142.992z
		 M275.76,277.168c1.136,2.072,2.424,3.888,3.928,5.272c-2.328,1.752-4.4,3.48-6.28,5.136c-1.008-1.072-2.112-2.032-3.304-2.896
		C271.992,282.44,273.912,279.872,275.76,277.168z M254.584,177.416c2.136,0,4.144,0.832,5.656,2.344s2.344,3.52,2.344,5.656
		s-0.832,4.144-2.344,5.656l0,0c-3.016,3.024-8.288,3.024-11.312,0c-1.512-1.512-2.344-3.52-2.344-5.656s0.832-4.144,2.344-5.656
		C250.44,178.248,252.448,177.416,254.584,177.416z M251.056,143.632c1.6,0.152,3.12,0.368,4.944,0.368
		c2.16,0,4.008-0.224,5.856-0.432c-2.096,6.048-3.128,12.728-3.608,18.416c-1.432-0.208-2.872-0.312-4.32-0.28
		C253.608,156.392,252.824,149.824,251.056,143.632z M250.904,209.056c1.216,0.184,2.432,0.36,3.68,0.36
		c2.32,0,4.552-0.432,6.72-1.064c0.912,8.624,3.112,18.92,8.296,25.728c-3.624-1.296-8.064-2.08-13.6-2.08
		c-4.544,0-8.2,0.616-11.44,1.512C248.56,226.304,250.24,216.776,250.904,209.056z M256,16c12,0,12,3.528,12,8
		c0,5.048-6.016,13.704-12,20.48c-5.984-6.776-12-15.432-12-20.48C244,19.528,244,16,256,16z M264,72c0,4.408-3.592,8-8,8
		c-4.408,0-8-3.592-8-8s3.592-8,8-8C260.408,64,264,67.592,264,72z M256,99.52c5.984,6.776,12,15.432,12,20.48c0,4.472,0,8-12,8
		s-12-3.528-12-8C244,114.952,250.016,106.296,256,99.52z M256,248c12,0,12,3.528,12,8c0,5.048-6.016,13.704-12,20.48
		c-5.984-6.776-12-15.432-12-20.48C244,251.528,244,248,256,248z M264,304c0,4.408-3.592,8-8,8c-4.408,0-8-3.592-8-8s3.592-8,8-8
		C260.408,296,264,299.592,264,304z M256,331.52c5.984,6.776,12,15.432,12,20.48c0,4.472,0,8-12,8s-12-3.528-12-8
		C244,346.952,250.016,338.296,256,331.52z M185.408,247.576c-1.008-1.072-2.112-2.032-3.304-2.896
		c4.872-5.784,10.2-13.472,12.568-21.208c1.488,3.912,4.184,7.824,8.24,12.024C196.248,238.696,190.056,243.472,185.408,247.576z
		 M191.688,277.56c-2.584,2.368-4.64,5.784-5.992,10.304c-1.2-1.6-2.408-3.136-3.584-4.536c2.848-2.088,5.168-4.784,6.872-7.896
		C189.856,276.136,190.736,276.848,191.688,277.56z M216,248c4.472,0,8,0,8,12s-3.528,12-8,12c-5.048,0-13.704-6.016-20.48-12
		C202.296,254.016,210.952,248,216,248z M208,288c5.048,0,13.704,6.016,20.48,12c-6.776,5.984-15.432,12-20.48,12c-4.472,0-8,0-8-12
		S203.528,288,208,288z M223.152,230.704c-2.088-0.448-4.832-2.36-8.16-5.696c-3.328-3.328-5.248-6.072-5.688-8.16
		c-0.168-0.768-0.552-2.568,2.864-5.976c3.568-3.568,13.952-5.44,22.976-6c-0.552,9.008-2.416,19.376-6,22.968
		C225.712,231.256,223.912,230.872,223.152,230.704z M236.24,277.168c1.848,2.704,3.768,5.272,5.648,7.512
		c-1.192,0.872-2.296,1.832-3.304,2.896c-1.872-1.656-3.952-3.392-6.28-5.136C233.824,281.056,235.104,279.24,236.24,277.168z
		 M212.128,151.152c0.152-0.728,0.552-1.568,1.064-2.456c2.952-1.76,5.512-4.456,7.424-8.264c2.088-1.744,3.896-2.824,5.36-3.136
		c0.2-0.04,0.472-0.104,0.832-0.104c1,0,2.632,0.456,5.144,2.968c3.568,3.568,5.44,13.952,6,22.976
		c-9.008-0.552-19.376-2.416-22.968-6C211.576,153.712,211.96,151.912,212.128,151.152z M200,112c4.472,0,8,0,8,12
		c0,2.96-0.216,5.184-0.608,6.864c-0.296,0.288-0.584,0.504-0.888,0.808c-1.432,1.432-2.696,2.824-3.824,4.192
		c-0.84,0.112-1.728,0.136-2.68,0.136c-5.048,0-13.704-6.016-20.48-12C186.296,118.016,194.952,112,200,112z M172.976,139.424
		c6.496,5.264,14.888,10.616,23.088,12.048c-0.128,4.76,1.424,10.792,7.616,16.968c6.608,6.608,18.336,9.208,27.984,10.224
		c-0.64,2.176-1.072,4.416-1.072,6.744c0,1.256,0.176,2.48,0.36,3.696c-9.976,0.856-23.008,3.36-30.096,10.448
		c-2.872,2.872-4.728,5.704-5.904,8.4c-2.056-7.312-7.728-13.872-20.68-15.496C178.656,187.784,180,181.632,180,176
		c0-10.024-7.44-21.024-13.896-28.68C168.952,145.232,171.272,142.536,172.976,139.424z M168,291.52c5.984,6.776,12,15.432,12,20.48
		c0,4.472,0,8-12,8s-12-3.528-12-8C156,306.952,162.016,298.296,168,291.52z M160,264c0-4.408,3.592-8,8-8s8,3.592,8,8s-3.592,8-8,8
		S160,268.408,160,264z M168,236.48c-5.984-6.776-12-15.432-12-20.48c0-4.472,0-8,12-8s12,3.528,12,8
		C180,221.048,173.984,229.704,168,236.48z M152,72c12,0,12,3.528,12,8c0,5.048-6.016,13.704-12,20.48
		c-5.984-6.776-12-15.432-12-20.48C140,75.528,140,72,152,72z M160,128c0,4.408-3.592,8-8,8s-8-3.592-8-8s3.592-8,8-8
		S160,123.592,160,128z M152,155.52c5.984,6.776,12,15.432,12,20.48c0,4.472,0,8-12,8s-12-3.528-12-8
		C140,170.952,146.016,162.296,152,155.52z M145.736,199.536c-0.736,0.776-1.312,1.624-1.88,2.48c-0.032-0.952-0.12-1.84-0.2-2.728
		C144.296,199.4,145.04,199.448,145.736,199.536z M104,112c5.048,0,13.704,6.016,20.48,12c-6.776,5.984-15.432,12-20.48,12
		c-4.472,0-8,0-8-12S99.528,112,104,112z M100,160c0-2.768-0.32-5.664-1.16-8.456c1.736,0.28,3.472,0.456,5.16,0.456
		c9.344,0,19.48-6.472,27.024-12.576c1.704,3.112,4.024,5.808,6.872,7.896C131.44,154.976,124,165.976,124,176
		c0,0.08,0.016,0.168,0.016,0.248C122.664,176.08,121.32,176,120,176c-10.936,0-22.944,8.816-30.592,15.576
		c-1.008-1.072-2.12-2.032-3.304-2.896C92.56,181.024,100,170.024,100,160z M128,204c0,12-3.528,12-8,12
		c-5.048,0-13.704-6.016-20.48-12c6.776-5.984,15.432-12,20.48-12C124.472,192,128,192,128,204z M72,264c-12,0-12-3.528-12-8
		c0-5.048,6.016-13.704,12-20.48c5.984,6.776,12,15.432,12,20.48C84,260.472,84,264,72,264z M64,208c0-4.408,3.592-8,8-8
		s8,3.592,8,8s-3.592,8-8,8S64,212.408,64,208z M72,180.48c-5.984-6.776-12-15.432-12-20.48c0-4.472,0-8,12-8s12,3.528,12,8
		C84,165.048,77.984,173.704,72,180.48z M92.976,219.424C100.52,225.528,110.648,232,120,232c7.56,0,16.024-2.48,20.6-11.536
		c1.704,8.728,7.784,17.68,13.296,24.216c-1.192,0.872-2.296,1.832-3.304,2.896C142.944,240.816,130.936,232,120,232
		c-8.384,0-17.952,2.928-21.992,14.656c-2.616-7.096-7.424-14.016-11.896-19.336C88.952,225.232,91.272,222.536,92.976,219.424z
		 M140.48,260c-6.776,5.984-15.432,12-20.48,12c-4.472,0-8,0-8-12s3.528-12,8-12C125.048,248,133.704,254.016,140.48,260z
		 M219.312,496l16-16h41.376l16,16H219.312z M240,464v-16h32v16H240z M276.576,432h-41.144L87.768,276.96
		c4.288-1.992,7.24-4.776,9.096-8.008C99.856,284.352,110.656,288,120,288s19.48-6.472,27.024-12.576
		c1.704,3.112,4.024,5.808,6.872,7.896C147.44,290.976,140,301.976,140,312c0,10.952,4.856,24,28,24
		c14.904,0,22.168-5.432,25.496-12.216C197.864,326.912,203.12,328,208,328c9.344,0,19.48-6.472,27.024-12.576
		c1.704,3.112,4.024,5.808,6.872,7.896C235.44,330.976,228,341.976,228,352c0,10.952,4.856,24,28,24s28-13.048,28-24
		c0-10.024-7.44-21.024-13.896-28.68c2.848-2.088,5.168-4.784,6.872-7.896C284.52,321.528,294.648,328,304,328
		c4.88,0,10.128-1.088,14.504-4.216C321.832,330.568,329.096,336,344,336c23.144,0,28-13.048,28-24
		c0-10.024-7.44-21.024-13.896-28.68c2.848-2.088,5.168-4.784,6.872-7.896C372.52,281.528,382.648,288,392,288
		c9.344,0,20.144-3.648,23.136-19.056c1.856,3.232,4.808,6.016,9.096,8.008L276.576,432z M371.52,260
		c6.776-5.984,15.432-12,20.48-12c4.472,0,8,0,8,12s-3.528,12-8,12C386.952,272,378.296,265.984,371.52,260z M413.992,246.656
		C409.944,234.928,400.384,232,392,232c-10.936,0-22.944,8.816-30.592,15.576c-1.008-1.072-2.112-2.032-3.304-2.896
		c5.504-6.536,11.584-15.488,13.296-24.216C375.976,229.52,384.44,232,392,232c9.344,0,19.48-6.472,27.024-12.576
		c1.704,3.112,4.024,5.808,6.872,7.896C421.416,232.632,416.608,239.56,413.992,246.656z M384,204c0-12,3.528-12,8-12
		c5.048,0,13.704,6.016,20.48,12c-6.776,5.984-15.432,12-20.48,12C387.528,216,384,216,384,204z M422.592,191.576
		C414.944,184.816,402.936,176,392,176c-1.32,0-2.664,0.08-4.016,0.248c0-0.08,0.016-0.168,0.016-0.248
		c0-10.024-7.44-21.024-13.896-28.68c2.848-2.088,5.168-4.784,6.872-7.896C388.52,145.528,398.648,152,408,152
		c1.688,0,3.424-0.176,5.16-0.456c-0.84,2.792-1.16,5.688-1.16,8.456c0,10.024,7.44,21.024,13.896,28.68
		C424.704,189.552,423.6,190.512,422.592,191.576z M440,264c-12,0-12-3.528-12-8c0-5.048,6.016-13.704,12-20.48
		c5.984,6.776,12,15.432,12,20.48C452,260.472,452,264,440,264z M432,208c0-4.408,3.592-8,8-8s8,3.592,8,8s-3.592,8-8,8
		S432,212.408,432,208z M440,180.48c-5.984-6.776-12-15.432-12-20.48c0-4.472,0-8,12-8s12,3.528,12,8
		C452,165.048,445.984,173.704,440,180.48z M488,216c-5.048,0-13.704-6.016-20.48-12c6.776-5.984,15.432-12,20.48-12
		c4.472,0,8,0,8,12S492.472,216,488,216z"/>
	<rect x="384" y="400" style="fill:#3C4A53;" width="16" height="16"/>
	<rect x="416" y="400" style="fill:#3C4A53;" width="16" height="16"/>
	<rect x="352" y="400" style="fill:#3C4A53;" width="16" height="16"/>
</g>
</svg>